[center][img]http://img190.imageshack.us/img190/7498/29911469.jpg[/img][/center]

[center][img]http://leetleech.org/images/48874973695367351744.png[/img][/center]

[center]Format                           : AVI
Format/Info                      : Audio Video Interleave
File size                        : 1.07 GiB
Duration                         : 1h 31mn
Overall bit rate                 : 1 675 Kbps
Writing application              : VirtualDubMod 1.5.10.2 (build 2540/release)
Writing library                  : VirtualDub build 32839/release

Video
ID                               : 0
Format                           : MPEG-4 Visual
Format profile                   : Advanced Simple@L5
Format settings, BVOP            : Yes
Format settings, QPel            : No
Format settings, GMC             : No warppoints
Format settings, Matrix          : Custom
Codec ID                         : XVID
Codec ID/Hint                    : XviD
Duration                         : 1h 31mn
Bit rate                         : 1 536 Kbps
Width                            : 592 pixels
Height                           : 320 pixels
Display aspect ratio             : 1.850
Frame rate                       : 29.970 fps
Color space                      : YUV
Chroma subsampling               : 4:2:0
Bit depth                        : 8 bits
Scan type                        : Progressive
Bits/(Pixel*Frame)               : 0.270
Stream size                      : 1 005 MiB (92%)
Writing library                  : XviD 1.2.1 (UTC 2008-12-04)

Audio
ID                               : 1
Format                           : MPEG Audio
Format version                   : Version 1
Format profile                   : Layer 3
Codec ID                         : 55
Codec ID/Hint                    : MP3
Duration                         : 1h 31mn
Bit rate mode                    : Constant
Bit rate                         : 128 Kbps
Channel(s)                       : 1 channel
Sampling rate                    : 44.1 KHz
Stream size                      : 83.8 MiB (8%)
Alignment                        : Split accross interleaves
Interleave, duration             : 33 ms (1.00 video frame)
Interleave, preload duration     : 500 ms
Writing library                  : LAME3.98.4

[/center]


[center][url]http://www.imdb.com/title/tt1542344/[/url][/center]



[center]A mountain climber becomes trapped under a boulder while canyoneering alone near Moab, Utah and resorts to desperate measures in order to survive.
Director:
Danny Boyle
Writers:
Danny Boyle (screenplay), Simon Beaufoy (screenplay), and 1 more credit »
Stars:
James Franco, Amber Tamblyn and Kate Mara
[/center]


[center][img]http://leetleech.org/images/95521316153253938506.png[/img][/center]

[center][img]http://img412.imageshack.us/img412/9373/vlcsnap2011010608h48m48.png[/img][/center]
[center][img]http://img263.imageshack.us/img263/9403/vlcsnap2011010608h57m09.png[/img][/center]
[center][img]http://img714.imageshack.us/img714/5021/vlcsnap2011010608h49m09.png[/img][/center]



[center]Source - 127.Hours.2010.DVDSCR.AC3.XViD-T0XiC-iNK  Thanks guys ![/center]


[center]Greetz to Imagine ,Flawl3ss ,Santi ,Vision ,Kingdom,BDK,DiGiTALiNK,LEGION,Classified,THC,WBZ,Rx ,Feel Free and to all who share[/center]


[center][img]http://signatures.mylivesignature.com/54488/364/63C91F8D3F952BFA8B83650965539EC2.png[/img][/center]